<mxfile host="app.diagrams.net" agent="Mozilla/5.0 (Windows NT 10.0; Win64; x64) AppleWebKit/537.36 (KHTML, like Gecko) Chrome/133.0.0.0 Safari/537.36" version="26.0.6">
  <diagram name="Pagina-1" id="iji9mjaX2ZRETf_4VpH7">
    <mxGraphModel grid="0" page="0" gridSize="10" guides="1" tooltips="1" connect="1" arrows="1" fold="1" pageScale="1" pageWidth="827" pageHeight="1169" math="0" shadow="0">
      <root>
        <mxCell id="0" />
        <mxCell id="1" parent="0" />
        <mxCell id="YPHEkQIwftPcaMCxqJR_-15" style="edgeStyle=none;curved=1;rounded=0;orthogonalLoop=1;jettySize=auto;html=1;exitX=0.5;exitY=0.5;exitDx=0;exitDy=0;exitPerimeter=0;entryX=0;entryY=0.5;entryDx=0;entryDy=0;fontSize=12;startSize=8;endSize=8;" edge="1" parent="1" source="YPHEkQIwftPcaMCxqJR_-1" target="YPHEkQIwftPcaMCxqJR_-4">
          <mxGeometry relative="1" as="geometry" />
        </mxCell>
        <mxCell id="YPHEkQIwftPcaMCxqJR_-1" value="Utente" style="shape=umlActor;verticalLabelPosition=bottom;verticalAlign=top;html=1;outlineConnect=0;" vertex="1" parent="1">
          <mxGeometry x="-626" y="-67" width="30" height="60" as="geometry" />
        </mxCell>
        <mxCell id="YPHEkQIwftPcaMCxqJR_-17" style="edgeStyle=none;curved=1;rounded=0;orthogonalLoop=1;jettySize=auto;html=1;exitX=0.5;exitY=0.5;exitDx=0;exitDy=0;exitPerimeter=0;entryX=0;entryY=0.5;entryDx=0;entryDy=0;fontSize=12;startSize=8;endSize=8;" edge="1" parent="1" source="YPHEkQIwftPcaMCxqJR_-2" target="YPHEkQIwftPcaMCxqJR_-5">
          <mxGeometry relative="1" as="geometry" />
        </mxCell>
        <mxCell id="YPHEkQIwftPcaMCxqJR_-2" value="Editor" style="shape=umlActor;verticalLabelPosition=bottom;verticalAlign=top;html=1;outlineConnect=0;" vertex="1" parent="1">
          <mxGeometry x="-626" y="34" width="30" height="60" as="geometry" />
        </mxCell>
        <mxCell id="YPHEkQIwftPcaMCxqJR_-19" style="edgeStyle=none;curved=1;rounded=0;orthogonalLoop=1;jettySize=auto;html=1;exitX=0.5;exitY=0.5;exitDx=0;exitDy=0;exitPerimeter=0;entryX=0;entryY=1;entryDx=0;entryDy=0;fontSize=12;startSize=8;endSize=8;" edge="1" parent="1" source="YPHEkQIwftPcaMCxqJR_-3" target="YPHEkQIwftPcaMCxqJR_-6">
          <mxGeometry relative="1" as="geometry" />
        </mxCell>
        <mxCell id="YPHEkQIwftPcaMCxqJR_-3" value="Approvatore" style="shape=umlActor;verticalLabelPosition=bottom;verticalAlign=top;html=1;outlineConnect=0;" vertex="1" parent="1">
          <mxGeometry x="-626" y="137" width="30" height="60" as="geometry" />
        </mxCell>
        <mxCell id="YPHEkQIwftPcaMCxqJR_-4" value="visualizzare cotenuto" style="ellipse;whiteSpace=wrap;html=1;" vertex="1" parent="1">
          <mxGeometry x="-390" y="-134" width="140" height="70" as="geometry" />
        </mxCell>
        <mxCell id="YPHEkQIwftPcaMCxqJR_-5" value="scrivere bozze" style="ellipse;whiteSpace=wrap;html=1;" vertex="1" parent="1">
          <mxGeometry x="-456" y="-15" width="140" height="70" as="geometry" />
        </mxCell>
        <mxCell id="YPHEkQIwftPcaMCxqJR_-6" value="approvare modfiche" style="ellipse;whiteSpace=wrap;html=1;" vertex="1" parent="1">
          <mxGeometry x="-269" y="44" width="140" height="70" as="geometry" />
        </mxCell>
        <mxCell id="YPHEkQIwftPcaMCxqJR_-7" value="ripristinare versioni" style="ellipse;whiteSpace=wrap;html=1;" vertex="1" parent="1">
          <mxGeometry x="-269" y="169" width="140" height="70" as="geometry" />
        </mxCell>
        <mxCell id="YPHEkQIwftPcaMCxqJR_-20" style="edgeStyle=none;curved=1;rounded=0;orthogonalLoop=1;jettySize=auto;html=1;exitX=0.5;exitY=0.5;exitDx=0;exitDy=0;exitPerimeter=0;fontSize=12;startSize=8;endSize=8;" edge="1" parent="1" source="YPHEkQIwftPcaMCxqJR_-8" target="YPHEkQIwftPcaMCxqJR_-10">
          <mxGeometry relative="1" as="geometry" />
        </mxCell>
        <mxCell id="YPHEkQIwftPcaMCxqJR_-8" value="Admin" style="shape=umlActor;verticalLabelPosition=bottom;verticalAlign=top;html=1;" vertex="1" parent="1">
          <mxGeometry x="-626" y="229" width="30" height="60" as="geometry" />
        </mxCell>
        <mxCell id="YPHEkQIwftPcaMCxqJR_-10" value="approvazione ruoli" style="ellipse;whiteSpace=wrap;html=1;" vertex="1" parent="1">
          <mxGeometry x="-460" y="214" width="140" height="70" as="geometry" />
        </mxCell>
        <mxCell id="YPHEkQIwftPcaMCxqJR_-12" value="&amp;lt;&amp;lt;include&amp;gt;&amp;gt;" style="endArrow=open;endSize=12;dashed=1;html=1;rounded=0;fontSize=12;curved=1;exitX=0.5;exitY=0;exitDx=0;exitDy=0;entryX=1;entryY=1;entryDx=0;entryDy=0;" edge="1" parent="1" source="YPHEkQIwftPcaMCxqJR_-6" target="YPHEkQIwftPcaMCxqJR_-4">
          <mxGeometry width="160" relative="1" as="geometry">
            <mxPoint x="-497" y="133" as="sourcePoint" />
            <mxPoint x="-337" y="133" as="targetPoint" />
          </mxGeometry>
        </mxCell>
        <mxCell id="YPHEkQIwftPcaMCxqJR_-13" value="&amp;lt;&amp;lt;include&amp;gt;&amp;gt;" style="endArrow=open;endSize=12;dashed=1;html=1;rounded=0;fontSize=12;curved=1;exitX=0.5;exitY=0;exitDx=0;exitDy=0;entryX=0;entryY=1;entryDx=0;entryDy=0;" edge="1" parent="1" source="YPHEkQIwftPcaMCxqJR_-5" target="YPHEkQIwftPcaMCxqJR_-4">
          <mxGeometry width="160" relative="1" as="geometry">
            <mxPoint x="-497" y="133" as="sourcePoint" />
            <mxPoint x="-337" y="133" as="targetPoint" />
          </mxGeometry>
        </mxCell>
        <mxCell id="YPHEkQIwftPcaMCxqJR_-14" value="&amp;lt;&amp;lt;include&amp;gt;&amp;gt;" style="endArrow=open;endSize=12;dashed=1;html=1;rounded=0;fontSize=12;curved=1;exitX=0.5;exitY=0;exitDx=0;exitDy=0;entryX=0.5;entryY=1;entryDx=0;entryDy=0;" edge="1" parent="1" source="YPHEkQIwftPcaMCxqJR_-7" target="YPHEkQIwftPcaMCxqJR_-6">
          <mxGeometry width="160" relative="1" as="geometry">
            <mxPoint x="-497" y="133" as="sourcePoint" />
            <mxPoint x="-337" y="133" as="targetPoint" />
          </mxGeometry>
        </mxCell>
        <mxCell id="YPHEkQIwftPcaMCxqJR_-18" style="edgeStyle=none;curved=1;rounded=0;orthogonalLoop=1;jettySize=auto;html=1;exitX=0.5;exitY=0.5;exitDx=0;exitDy=0;exitPerimeter=0;entryX=0.034;entryY=0.547;entryDx=0;entryDy=0;entryPerimeter=0;fontSize=12;startSize=8;endSize=8;" edge="1" parent="1" source="YPHEkQIwftPcaMCxqJR_-3" target="YPHEkQIwftPcaMCxqJR_-7">
          <mxGeometry relative="1" as="geometry" />
        </mxCell>
        <mxCell id="YPHEkQIwftPcaMCxqJR_-29" value="" style="whiteSpace=wrap;html=1;aspect=fixed;fillColor=none;" vertex="1" parent="1">
          <mxGeometry x="-529" y="-179" width="476" height="476" as="geometry" />
        </mxCell>
        <mxCell id="YPHEkQIwftPcaMCxqJR_-31" value="Progetto wiki" style="text;html=1;align=center;verticalAlign=middle;whiteSpace=wrap;rounded=0;fontSize=16;" vertex="1" parent="1">
          <mxGeometry x="-321" y="-172" width="60" height="30" as="geometry" />
        </mxCell>
      </root>
    </mxGraphModel>
  </diagram>
</mxfile>
